<svg width="23" height="32" viewBox="0 0 23 32" fill="none" xmlns="http://www.w3.org/2000/svg">
<path d="M11.8226 14.7824C10.6731 15.2744 9.36872 15.8323 7.67816 15.8323C6.97094 15.8309 6.26718 15.7339 5.58594 15.5439L6.75519 27.5485C6.79656 28.0501 7.02515 28.5181 7.39551 28.8589C7.76587 29.2001 8.25094 29.3893 8.7544 29.389C8.7544 29.389 10.4122 29.4753 10.9654 29.4753C11.5608 29.4753 13.3461 29.389 13.3461 29.389C13.8495 29.389 14.3344 29.1998 14.7047 28.8589C15.075 28.5177 15.3035 28.0501 15.3449 27.5485L16.5972 14.283C16.0376 14.0918 15.4728 13.9648 14.836 13.9648C13.7348 13.9644 12.8476 14.3437 11.8226 14.7824Z" fill="white"/>
<path d="M22.0062 8.55288L21.8304 7.66478C21.6722 6.86792 21.3137 6.11498 20.4957 5.82697C20.2337 5.73485 19.9359 5.69524 19.735 5.50455C19.534 5.31383 19.4745 5.01766 19.4281 4.74298C19.3421 4.23887 19.2611 3.73432 19.1729 3.23109C19.0967 2.79844 19.0363 2.3124 18.8379 1.9155C18.5797 1.38253 18.0438 1.07086 17.5108 0.864653C17.2376 0.762692 16.9588 0.676451 16.6759 0.606353C15.3444 0.255046 13.9444 0.125896 12.5746 0.0523008C10.9304 -0.0384181 9.2818 -0.011098 7.6415 0.134098C6.42062 0.245144 5.13474 0.37949 3.97454 0.801777C3.55049 0.956352 3.11356 1.14188 2.79111 1.46949C2.39549 1.87201 2.26634 2.49452 2.5552 2.99645C2.76056 3.35292 3.1084 3.60475 3.47732 3.77135C3.95788 3.98602 4.45974 4.14936 4.97457 4.25867C6.40814 4.57553 7.89294 4.69995 9.35748 4.75289C10.9807 4.81841 12.6066 4.7653 14.2221 4.59403C14.6216 4.55014 15.0204 4.49746 15.4185 4.43606C15.8872 4.36416 16.1882 3.75112 16.05 3.32406C15.8847 2.81351 15.4404 2.61547 14.938 2.69253C14.864 2.70416 14.7904 2.71491 14.7163 2.7257L14.6629 2.73344C14.4927 2.75495 14.3225 2.77504 14.1523 2.7937C13.8008 2.83158 13.4484 2.86259 13.0951 2.88668C12.3038 2.94178 11.5104 2.9672 10.7174 2.96848C9.93823 2.96848 9.15859 2.94651 8.38111 2.89531C8.02637 2.87204 7.67251 2.8425 7.31951 2.80661C7.15892 2.78982 6.99879 2.77217 6.83863 2.75236L6.68624 2.73299L6.6531 2.72828L6.4951 2.70544C6.17222 2.65681 5.84935 2.60083 5.52993 2.53325C5.49771 2.52609 5.46886 2.50818 5.4482 2.48243C5.42755 2.45668 5.41627 2.42462 5.41627 2.39161C5.41627 2.35861 5.42755 2.32658 5.4482 2.30083C5.46886 2.27508 5.49771 2.25714 5.52993 2.24998H5.53595C5.81278 2.19099 6.09173 2.14063 6.37154 2.09671C6.46484 2.0821 6.5584 2.06772 6.65222 2.05367H6.6548C6.83003 2.04204 7.00611 2.01063 7.18046 1.98995C8.69738 1.83217 10.2233 1.77838 11.7476 1.82897C12.4876 1.85047 13.2272 1.89397 13.9638 1.96887C14.1222 1.98524 14.2798 2.00246 14.4373 2.02181C14.4976 2.02913 14.5583 2.03776 14.619 2.04508L14.7413 2.06272C15.0977 2.1158 15.4523 2.18024 15.805 2.25603C16.3277 2.36965 16.9987 2.40668 17.2314 2.97926C17.3052 3.16093 17.3389 3.36282 17.3797 3.55354L17.432 3.79674C17.4333 3.80112 17.4343 3.8056 17.435 3.81011C17.5582 4.3841 17.6814 4.95808 17.8046 5.5321C17.8137 5.57449 17.814 5.61831 17.8052 5.66079C17.7967 5.70328 17.7794 5.74354 17.7546 5.77903C17.7297 5.81455 17.6977 5.84455 17.6608 5.86717C17.6238 5.88978 17.5823 5.90452 17.5395 5.9105H17.5359L17.4608 5.92083L17.3863 5.93073C17.1503 5.96145 16.914 5.99014 16.6776 6.01684C16.2119 6.06991 15.7454 6.11586 15.2781 6.15458C14.3497 6.23181 13.4194 6.28246 12.4872 6.30655C12.0122 6.31919 11.5374 6.32508 11.0627 6.32419C9.17323 6.32272 7.28542 6.21292 5.40853 5.9953C5.20533 5.97119 5.00216 5.94537 4.79895 5.91909C4.9565 5.93936 4.68444 5.9036 4.62935 5.89586C4.5002 5.87779 4.37105 5.859 4.2419 5.83945C3.80837 5.77445 3.37745 5.69439 2.9448 5.62422C2.42173 5.53811 1.92151 5.58119 1.4484 5.83945C1.06003 6.05197 0.745721 6.37788 0.547355 6.77364C0.343303 7.19553 0.282617 7.65488 0.191343 8.10818C0.100068 8.56151 -0.0419907 9.04926 0.0118328 9.51462C0.127617 10.519 0.829773 11.3352 1.83971 11.5177C2.7898 11.6899 3.7451 11.8294 4.70294 11.9482C8.46562 12.4091 12.2669 12.4642 16.0414 12.1127C16.3488 12.084 16.6557 12.0527 16.9621 12.0188C17.0578 12.0083 17.1549 12.0193 17.2457 12.0511C17.3366 12.0829 17.4193 12.1346 17.4876 12.2024C17.5559 12.2703 17.6085 12.3526 17.6408 12.4433C17.6732 12.534 17.685 12.6308 17.6752 12.7266L17.5794 13.6556C17.3869 15.5328 17.1944 17.4099 17.002 19.2869C16.801 21.258 16.5987 23.229 16.3953 25.1996C16.3378 25.7549 16.2805 26.3098 16.223 26.8647C16.1679 27.4107 16.1602 27.9745 16.0564 28.5143C15.8929 29.363 15.3181 29.8846 14.4795 30.0751C13.7112 30.25 12.9264 30.3418 12.1385 30.349C11.265 30.3536 10.392 30.315 9.51849 30.3196C8.58604 30.3248 7.44392 30.2388 6.72412 29.5447C6.09173 28.9353 6.00435 27.9807 5.91823 27.1555C5.80343 26.063 5.68964 24.9706 5.57686 23.8781L4.94402 17.8043L4.53461 13.8743C4.52774 13.8093 4.52085 13.7451 4.51438 13.6797C4.46533 13.2109 4.1334 12.752 3.61036 12.7756C3.16262 12.7954 2.65379 13.176 2.70631 13.6797L3.0098 16.5933L3.63745 22.6203C3.81627 24.3323 3.99464 26.0444 4.17258 27.7568C4.20703 28.0849 4.23931 28.414 4.27546 28.7418C4.47219 30.5346 5.84118 31.5006 7.53647 31.7725C8.52663 31.932 9.54088 31.9647 10.5456 31.981C11.8337 32.0016 13.1347 32.0513 14.4016 31.8179C16.279 31.4735 17.6876 30.2199 17.8886 28.2751C17.9461 27.714 18.0036 27.1522 18.0608 26.5908C18.2516 24.7333 18.4421 22.8757 18.6327 21.0179L19.2549 14.9479L19.5405 12.1661C19.5546 12.0281 19.6131 11.8984 19.7065 11.7962C19.8003 11.6939 19.9245 11.6245 20.0604 11.5982C20.5974 11.4936 21.1104 11.315 21.4925 10.9064C22.1003 10.2559 22.2212 9.40785 22.0062 8.55288ZM1.81216 9.15301C1.82033 9.14913 1.80526 9.21929 1.79883 9.25203C1.79752 9.20252 1.8001 9.1586 1.81216 9.15301ZM1.86425 9.55595C1.86856 9.55295 1.88147 9.57017 1.8948 9.59082C1.87458 9.57187 1.86167 9.55769 1.86382 9.55595H1.86425ZM1.91549 9.62354C1.94389 9.67478 1.93399 9.65497 1.91549 9.62354ZM2.01837 9.70707H2.02095C2.02095 9.71007 2.02569 9.71308 2.02742 9.71609C2.02454 9.71279 2.02137 9.70975 2.01794 9.70707H2.01837ZM20.0356 9.5822C19.8428 9.7656 19.552 9.85086 19.265 9.89347C16.0448 10.3713 12.7778 10.6132 9.52235 10.5065C7.19251 10.4268 4.88719 10.1681 2.58059 9.84223C2.35458 9.81037 2.10964 9.76906 1.95422 9.60246C1.66147 9.28818 1.80526 8.65534 1.88147 8.27566C1.95121 7.92782 2.08467 7.46416 2.49837 7.41465C3.14412 7.3389 3.89405 7.61138 4.53291 7.70824C5.30206 7.82563 6.07408 7.91962 6.84899 7.99024C10.156 8.29158 13.5187 8.24465 16.8111 7.80383C17.4111 7.72318 18.0091 7.62949 18.6049 7.52272C19.1359 7.42756 19.7242 7.24893 20.0451 7.79867C20.265 8.17318 20.2941 8.67429 20.2601 9.09746C20.2497 9.28184 20.1693 9.45527 20.035 9.5822H20.0356Z" fill="#83ABDC"/>
</svg>
