<svg width="135" height="420" viewBox="0 0 135 420" fill="none" xmlns="http://www.w3.org/2000/svg">
<path fill-rule="evenodd" clip-rule="evenodd" d="M61.1841 0.904276C54.4523 3.0549 50.0294 7.66998 48.0138 14.6452C47.2895 17.1533 47.1757 19.1348 47.3902 25.5384C47.6971 34.698 48.6202 38.5739 52.2517 45.9434C54.6054 50.7193 54.6153 50.7624 54.5618 55.9906C54.4369 68.1574 43.1056 71.9222 32.5454 75.1724C26.5971 77.0035 23.0518 78.6469 21.6083 80.2424C20.4771 81.4936 19.8163 82.1618 18.9343 83.666C16.6523 87.5564 15.5842 93.1742 15.0364 104.172C14.1766 121.427 11.8255 138.461 9.12237 147.018C5.85121 157.374 5.13104 162.596 4.158 183.018C3.42225 198.446 2.82618 204.94 1.28302 214.334C0.577389 218.63 0 223.153 0 224.385C0 227.083 1.48396 231.655 3.98094 236.648C6.47792 241.644 8.10053 243.709 9.52841 243.709C12.2788 243.709 12.5903 241.399 10.6769 235.203C8.89805 229.444 8.66233 227.552 9.40068 224.964L10.0456 222.7L10.7652 225.878C11.5742 229.447 12.9325 231.259 14.8002 231.259C16.8786 231.259 17.225 229.755 17.293 220.441C17.3532 212.105 17.3091 211.718 16.011 209.214C13.1693 203.732 13.2757 203.028 20.0028 182.759C24.9454 167.866 26.0135 163.311 26.9979 152.932C27.6039 146.543 28.7462 140.485 31.0427 131.481L32.4789 125.852L33.9665 134.075C36.7756 149.605 36.72 154.359 33.5703 167.756C32.5698 172.013 31.6019 177.481 31.4192 179.906C31.2369 182.331 30.4171 188.283 29.5977 193.133C24.9542 220.609 25.5732 237.889 32.4685 273.276C36.0372 291.59 36.2205 294.435 34.7583 308.808C33.304 323.103 33.2183 335.732 34.5081 345.638C34.991 349.347 36.64 358.69 38.1733 366.401C39.7066 374.111 41.2181 382.486 41.5322 385.012C42.6153 393.719 40.8588 397.556 31.5993 406.707C27.9299 410.334 25.4423 413.2 25.4423 413.802C25.4423 415.364 27.6734 416.76 31.8013 417.782C39.8479 419.773 45.3891 418.666 47.5958 414.628C49.2314 411.634 49.4863 411.439 52.2647 411.053C56.8199 410.419 57.995 408.479 57.0619 403.128C56.7384 401.271 56.6289 398.339 56.8173 396.565C57.347 391.588 57.3449 391.548 56.3506 386.878C55.1465 381.225 55.4897 374.29 57.6471 360.681C60.0926 345.252 60.5579 336.665 59.5719 325.148C58.7073 315.046 58.7437 314.341 60.6991 303.227C61.4889 298.738 61.9094 293.054 62.2911 281.7C62.801 266.52 63.3264 259.346 65.4319 238.781C66.6682 226.708 66.8385 225.722 67.5613 226.445C68.8245 227.707 72.0485 263.471 72.6944 283.391C73.0703 294.992 73.3865 298.688 74.5356 304.918C75.8492 312.038 75.8991 312.895 75.4759 320.998C74.6451 336.903 74.9795 344.783 77.0928 359.125C79.3447 374.402 79.6765 383.423 78.1894 388.92C77.4272 391.739 77.3846 392.613 77.9179 394.515C78.354 396.072 78.4158 397.928 78.1183 400.512C77.1214 409.156 77.4765 409.993 82.6735 411.256C85.6227 411.973 85.982 412.218 87.2209 414.369C89.6566 418.596 93.5602 419.522 102.334 417.955C106.268 417.253 109.173 415.718 109.469 414.185C109.588 413.571 107.926 411.577 104.514 408.238C98.3153 402.173 94.3214 396.682 93.4408 393.014C92.5285 389.215 93.0295 384.874 96.2867 368.353C100.729 345.821 100.81 345.207 101.105 331.883C101.324 322.003 101.193 318.157 100.419 311.653C99.8932 307.235 99.4644 300.236 99.4659 296.1C99.4691 289.18 99.6855 287.458 102.173 274.573C109.585 236.177 110.238 218.391 105.173 192.922C104.459 189.329 103.63 183.472 103.331 179.906C102.98 175.71 102.113 170.767 100.877 165.9C99.132 159.029 98.9659 157.751 98.9545 151.117C98.9441 145.307 99.2136 142.505 100.301 137.111C101.049 133.402 101.831 129.434 102.039 128.293C102.406 126.274 102.458 126.372 103.936 131.924C106.301 140.807 107.355 146.419 107.978 153.451C108.91 163.979 109.857 167.977 115.107 183.537C121.082 201.243 121.443 203.506 119.104 208.567C117.634 211.747 117.608 211.958 117.728 219.847C117.796 224.27 117.854 228.279 117.858 228.759C117.869 230.013 119.299 231.259 120.729 231.259C122.378 231.259 123.442 229.605 124.17 225.909C124.661 223.416 124.869 223.023 125.297 223.787C126.27 225.523 125.881 230.362 124.354 235.544C122.707 241.131 122.859 242.977 125.035 243.776C125.986 244.125 126.484 243.946 127.445 242.91C130.712 239.388 135 228.577 135 223.86C135 222.317 134.423 217.923 133.718 214.096C132.017 204.867 131.532 200.087 130.856 185.871C129.802 163.708 129.247 159.015 126.648 150.275C124.388 142.676 123.718 139.49 122.329 129.769C120.752 118.724 120.542 116.489 119.948 104.432C118.937 83.9108 115.811 78.7978 102.029 75.1247C97.606 73.9462 85.8797 68.1733 82.8651 65.6907C80.7508 63.9493 79.9615 61.0663 79.9615 55.0818C79.9615 51.5913 80.1531 50.8288 81.7477 47.9748C85.832 40.667 88.1431 29.8558 87.6233 20.4907C87.3185 14.9995 86.1664 11.5407 83.3765 7.74364C78.6526 1.3151 69.107 -1.62709 61.1841 0.904276ZM75.1337 3.5036C78.4148 4.93683 82.6569 9.2526 84.1995 12.726C85.0484 14.6385 85.36 16.6102 85.5511 21.2828C86.0906 34.4745 82.5546 45.5969 75.7397 52.1458C66.9792 60.5636 56.2706 54.5293 51.1583 38.2943C49.4972 33.0189 48.5865 23.2856 49.2901 18.324C50.3706 10.6993 54.527 5.1936 60.9224 2.91381C64.6463 1.5864 71.3859 1.86599 75.1337 3.5036ZM61.7506 56.2894C65.0965 58.3331 69.094 58.5308 72.4701 56.8205C73.8772 56.1078 75.4691 55.0377 76.0071 54.4432C77.3669 52.9395 77.8846 53.4945 77.8846 56.4548C77.8846 61.3521 78.8509 64.3021 81.1973 66.5648C84.213 69.4732 95.5405 75.133 102.908 77.4123C110.798 79.8534 113.267 81.7732 115.311 87.0543C116.94 91.2637 117.704 96.6284 118.08 106.493C118.407 115.056 120.212 131.189 121.73 139.117C122.143 141.272 123.303 145.787 124.307 149.151C127.316 159.223 127.649 161.938 129.031 187.718C129.638 199.059 130.174 204.257 131.621 212.861C133.487 223.948 133.516 225.166 132.037 229.962C130.914 233.6 127.201 240.651 126.602 240.281C126.328 240.112 126.178 240.381 126.268 240.88C126.358 241.378 126.141 241.887 125.784 242.012C124.766 242.368 124.991 239.966 126.489 234.473C128.026 228.838 128.001 225.443 126.399 222.164C124.833 218.959 123.997 219.474 122.737 224.421C121.624 228.793 120.953 230.068 120.058 229.515C119.78 229.344 119.547 225.514 119.526 220.78C119.49 212.471 119.512 212.297 121.079 208.731C123.367 203.524 123.051 201.381 117.651 185.384C111.5 167.162 111.123 165.501 109.534 149.56C109.18 146.015 107.915 139.754 106.192 133.026C102.764 119.638 101.351 117.62 100.483 124.871C100.291 126.468 99.4031 131.392 98.5084 135.814C97.1294 142.629 96.8859 144.961 96.9103 151.117C96.9363 157.75 97.1029 159.007 98.8345 165.641C100.084 170.429 100.917 175.112 101.278 179.387C101.579 182.953 102.382 188.789 103.062 192.355C105.274 203.956 105.94 209.571 106.263 219.329C106.757 234.232 105.175 249.045 100.513 273.169C96.6413 293.204 96.5167 295.564 98.5001 311.375C99.6425 320.482 99.6191 336.76 98.4508 345.378C97.9674 348.945 96.308 358.282 94.7627 366.127C90.9059 385.715 90.53 388.914 91.5965 393.073C92.758 397.602 96.2083 402.568 102.454 408.699C108.363 414.5 108.418 414.897 103.448 415.839C97.862 416.898 94.1677 417.104 92.2325 416.466C90.2771 415.821 88.8431 413.285 88.1296 411.816C87.7228 411.093 87.0952 410.739 86.387 410.345C85.7806 410.009 84.3252 409.58 83.1527 409.392C79.2684 408.772 79.1547 408.527 79.9574 402.47C80.5301 398.148 80.5374 396.706 79.9984 394.605C79.4309 392.393 79.4646 391.517 80.2362 388.371C81.4668 383.354 81.0556 371.414 79.2642 360.162C76.6177 343.537 76.5196 340.976 77.678 318.923C77.9469 313.801 77.7958 311.896 76.6068 305.437C75.4816 299.325 75.1353 295.388 74.7594 284.428C74.5044 277.011 74.1576 269.191 73.9878 267.051C72.6336 249.975 70.2192 227.5 69.5499 225.742C69.0141 224.334 66.4828 224.018 65.4729 225.234C64.8784 225.95 63.0829 241.29 61.5195 259.011C61.0667 264.146 60.4816 274.884 60.2199 282.872C59.9582 290.861 59.5231 298.68 59.2531 300.249C58.9831 301.819 58.3621 305.203 57.873 307.771C57.1232 311.706 57.0546 313.701 57.4389 320.48C58.3413 336.412 57.9706 345.316 55.8074 359.643C53.4834 375.039 53.1599 383.609 54.7119 388.691C55.5447 391.42 55.5805 392.14 55.0016 394.552C54.4637 396.791 54.4683 398.227 55.027 402.292C55.7072 407.24 55.7031 407.291 54.5395 408.232C53.8941 408.754 52.7014 409.181 51.8898 409.181C49.3851 409.181 47.7479 410.295 46.4281 412.897C44.996 415.721 44.3054 416.199 40.9273 416.705C36.9324 417.303 27.5192 415.34 27.5192 413.907C27.5192 413.625 30.2878 410.637 33.6716 407.267C38.7829 402.177 40.1557 400.465 41.7861 397.146L43.7478 393.152L43.4752 387.291C43.2831 383.161 42.4206 377.6 40.5556 368.462C36.4365 348.278 35.6234 341.797 35.6099 329.039C35.6031 323.047 35.8788 316.045 36.2226 313.477C38.3826 297.322 38.1832 292.678 34.5185 273.798C27.5208 237.746 26.864 218.858 31.7084 192.99C32.2572 190.058 32.9545 184.806 33.2578 181.319C33.5906 177.485 34.5491 172.004 35.6815 167.456C37.2865 161.014 37.5881 158.846 37.7844 152.341C37.9843 145.738 37.841 143.843 36.6888 137.817C35.9598 134.005 35.1093 129.369 34.7994 127.515C33.7895 121.48 33.7251 121.29 32.6903 121.29C31.6051 121.29 31.8096 120.678 28.621 133.48C26.1215 143.517 25.6266 146.253 24.9153 153.97C24.0482 163.372 22.6083 169.3 17.5432 184.315C11.7959 201.354 11.461 203.653 13.9408 209.05C15.5141 212.474 15.5333 212.618 15.4549 220.462C15.3994 226.059 15.1828 228.601 14.7223 229.067C13.8614 229.938 13.3515 228.939 12.4683 224.649C11.2907 218.928 9.49205 218.263 8.07611 223.027C6.89642 226.995 7.07712 229.989 8.84095 235.713C10.3202 240.515 10.4786 242.152 9.46351 242.152C8.85081 242.152 5.09833 235.294 3.45548 231.171C1.74877 226.887 1.66829 223.035 3.11176 214.66C4.81951 204.75 5.13416 201.544 5.9587 185.612C7.1872 161.878 7.61971 158.575 10.8763 148.064C13.7259 138.869 16.2862 120.948 16.888 105.988C17.2878 96.0438 17.8231 92.0164 19.3169 87.7058C21.356 81.823 24.4423 79.3596 32.5511 77.14C34.7812 76.5294 37.8062 75.5003 39.2736 74.8529C43.6626 72.9165 49.7107 71.7289 53.3058 66.4533C55.4363 63.3271 56.4951 61.9017 56.5962 57.3439C56.5962 55.5206 56.7535 53.8716 56.9456 53.6797C57.1382 53.4872 57.7805 53.6802 58.3735 54.1076C58.967 54.5356 60.4862 55.5175 61.7506 56.2894Z" fill="#304B6D"/>
<ellipse opacity="0" cx="67.3226" cy="29.5116" rx="27.1354" ry="15.8715" transform="rotate(91.3877 67.3226 29.5116)" fill="url(#paint0_radial_6067_72)"/>
<ellipse opacity="0" cx="9.93185" cy="19.7735" rx="9.93185" ry="19.7735" transform="matrix(-0.30043 0.953804 0.953804 0.30043 80.7656 71)" fill="url(#paint1_radial_6067_72)"/>
<ellipse opacity="0" cx="38.3797" cy="86.1109" rx="9.93185" ry="19.7735" transform="rotate(72.5165 38.3797 86.1109)" fill="url(#paint2_radial_6067_72)"/>
<ellipse opacity="0" cx="67.2979" cy="114" rx="18" ry="33.5" transform="rotate(90 67.2979 114)" fill="url(#paint3_radial_6067_72)"/>
<ellipse opacity="0" cx="43.2713" cy="7.06139" rx="43.2713" ry="7.06139" transform="matrix(0.195822 0.98064 0.98064 -0.195822 103.088 120.361)" fill="url(#paint4_radial_6067_72)"/>
<ellipse opacity="0" cx="16.3616" cy="160.749" rx="43.2713" ry="7.06139" transform="rotate(101.293 16.3616 160.749)" fill="url(#paint5_radial_6067_72)"/>
<ellipse opacity="0" cx="67.3639" cy="192.988" rx="24.5786" ry="34.5921" transform="rotate(90 67.3639 192.988)" fill="url(#paint6_radial_6067_72)"/>
<ellipse opacity="0" cx="50.5227" cy="9.10319" rx="50.5227" ry="9.10319" transform="matrix(0.0247598 0.999693 0.999693 -0.0247598 76.4668 251.489)" fill="url(#paint7_radial_6067_72)"/>
<ellipse opacity="0" cx="47.3371" cy="301.771" rx="50.5227" ry="9.10319" transform="rotate(91.4188 47.3371 301.771)" fill="url(#paint8_radial_6067_72)"/>
<ellipse opacity="0" cx="12.4744" cy="6.24863" rx="12.4744" ry="6.24863" transform="matrix(0.654088 0.756419 0.756419 -0.654088 78.2881 400.521)" fill="url(#paint9_radial_6067_72)"/>
<ellipse opacity="0" cx="43.4852" cy="406.477" rx="12.4744" ry="6.24863" transform="rotate(130.85 43.4852 406.477)" fill="url(#paint10_radial_6067_72)"/>
<defs>
<radialGradient id="paint0_radial_6067_72" cx="0" cy="0" r="1" gradientUnits="userSpaceOnUse" gradientTransform="translate(67.3226 29.5116) rotate(90) scale(15.8715 27.1354)">
<stop stop-color="#3F7AC3"/>
<stop offset="0.333333" stop-color="#2C4D80"/>
<stop offset="0.666667" stop-color="#182A4E"/>
<stop offset="1" stop-color="#0C0E1C"/>
</radialGradient>
<radialGradient id="paint1_radial_6067_72" cx="0" cy="0" r="1" gradientUnits="userSpaceOnUse" gradientTransform="translate(9.93185 19.7735) rotate(90) scale(19.7735 9.93185)">
<stop stop-color="#3F7AC3"/>
<stop offset="0.333333" stop-color="#2C4D80"/>
<stop offset="0.666667" stop-color="#182A4E"/>
<stop offset="1" stop-color="#0C0E1C"/>
</radialGradient>
<radialGradient id="paint2_radial_6067_72" cx="0" cy="0" r="1" gradientUnits="userSpaceOnUse" gradientTransform="translate(38.3797 86.1109) rotate(90) scale(19.7735 9.93185)">
<stop stop-color="#3F7AC3"/>
<stop offset="0.333333" stop-color="#2C4D80"/>
<stop offset="0.666667" stop-color="#182A4E"/>
<stop offset="1" stop-color="#0C0E1C"/>
</radialGradient>
<radialGradient id="paint3_radial_6067_72" cx="0" cy="0" r="1" gradientUnits="userSpaceOnUse" gradientTransform="translate(67.2979 114) rotate(90) scale(33.5 18)">
<stop stop-color="#3F7AC3"/>
<stop offset="0.333333" stop-color="#2C4D80"/>
<stop offset="0.666667" stop-color="#182A4E"/>
<stop offset="1" stop-color="#0C0E1C"/>
</radialGradient>
<radialGradient id="paint4_radial_6067_72" cx="0" cy="0" r="1" gradientUnits="userSpaceOnUse" gradientTransform="translate(43.2713 7.06139) rotate(90) scale(7.06139 43.2713)">
<stop stop-color="#3F7AC3"/>
<stop offset="0.333333" stop-color="#2C4D80"/>
<stop offset="0.666667" stop-color="#182A4E"/>
<stop offset="1" stop-color="#0C0E1C"/>
</radialGradient>
<radialGradient id="paint5_radial_6067_72" cx="0" cy="0" r="1" gradientUnits="userSpaceOnUse" gradientTransform="translate(16.3616 160.749) rotate(90) scale(7.06139 43.2713)">
<stop stop-color="#3F7AC3"/>
<stop offset="0.333333" stop-color="#2C4D80"/>
<stop offset="0.666667" stop-color="#182A4E"/>
<stop offset="1" stop-color="#0C0E1C"/>
</radialGradient>
<radialGradient id="paint6_radial_6067_72" cx="0" cy="0" r="1" gradientUnits="userSpaceOnUse" gradientTransform="translate(67.3639 192.988) rotate(90) scale(34.5921 24.5786)">
<stop stop-color="#3F7AC3"/>
<stop offset="0.333333" stop-color="#2C4D80"/>
<stop offset="0.666667" stop-color="#182A4E"/>
<stop offset="1" stop-color="#0C0E1C"/>
</radialGradient>
<radialGradient id="paint7_radial_6067_72" cx="0" cy="0" r="1" gradientUnits="userSpaceOnUse" gradientTransform="translate(50.5227 9.10319) rotate(90) scale(9.10319 50.5227)">
<stop stop-color="#3F7AC3"/>
<stop offset="0.333333" stop-color="#2C4D80"/>
<stop offset="0.666667" stop-color="#182A4E"/>
<stop offset="1" stop-color="#0C0E1C"/>
</radialGradient>
<radialGradient id="paint8_radial_6067_72" cx="0" cy="0" r="1" gradientUnits="userSpaceOnUse" gradientTransform="translate(47.3371 301.771) rotate(90) scale(9.10319 50.5227)">
<stop stop-color="#3F7AC3"/>
<stop offset="0.333333" stop-color="#2C4D80"/>
<stop offset="0.666667" stop-color="#182A4E"/>
<stop offset="1" stop-color="#0C0E1C"/>
</radialGradient>
<radialGradient id="paint9_radial_6067_72" cx="0" cy="0" r="1" gradientUnits="userSpaceOnUse" gradientTransform="translate(12.4744 6.24863) rotate(90) scale(6.24863 12.4744)">
<stop stop-color="#3F7AC3"/>
<stop offset="0.333333" stop-color="#2C4D80"/>
<stop offset="0.666667" stop-color="#182A4E"/>
<stop offset="1" stop-color="#0C0E1C"/>
</radialGradient>
<radialGradient id="paint10_radial_6067_72" cx="0" cy="0" r="1" gradientUnits="userSpaceOnUse" gradientTransform="translate(43.4852 406.477) rotate(90) scale(6.24863 12.4744)">
<stop stop-color="#3F7AC3"/>
<stop offset="0.333333" stop-color="#2C4D80"/>
<stop offset="0.666667" stop-color="#182A4E"/>
<stop offset="1" stop-color="#0C0E1C"/>
</radialGradient>
</defs>
</svg>
